# xmcd
#
# Track frame offsets: 
#        150
#        15155
#        28658
#        40376
#        46030
#        58797
#        72593
#        89604
#        100182
#        113252
#        127885
#        129672
#        152419
#        170930
#        189626
#        198138
#        212790
#        233338
#        246614
#        273105
#        288848
#        299515
#
# Disc length: 4321 seconds
#
# Revision: 0
# Processed by: cddbd v1.5.2PL0 Copyright (c) Steve Scherf et al.
# Submitted via: ExactAudioCopy v0.99pb4
#
DISCID=3610df16
DTITLE=Fabrizio De Andre' - Vol. 3 and La Buona Novella
DYEAR=1900
DGENRE=Blues
TTITLE0=La canzone di Marinella
TTITLE1=Il gorilla
TTITLE2=La ballata dell'eroe
TTITLE3=Si fosse foco
TTITLE4=Amore che vieni, amore che vai
TTITLE5=La guerra di Piero
TTITLE6=Il testamento
TTITLE7=Nell'acqua della chiara fontana
TTITLE8=La ballata del Miche'
TTITLE9=Il re fa rullare i tamburi
TTITLE10=Laudate Dominum
TTITLE11=L'infanzia di Maria
TTITLE12=Il ritorno di Giuseppe
TTITLE13=Il sogno di Maria
TTITLE14=Ave Maria
TTITLE15=Maria nella bottega del falegname
TTITLE16=Via della Croce
TTITLE17=Tre madri
TTITLE18=Il testamento di Tito
TTITLE19=Laudate hominem
TTITLE20=Il pescatore
TTITLE21=Una storia sbagliata
EXTD=
EXTT0=
EXTT1=
EXTT2=
EXTT3=
EXTT4=
EXTT5=
EXTT6=
EXTT7=
EXTT8=
EXTT9=
EXTT10=
EXTT11=
EXTT12=
EXTT13=
EXTT14=
EXTT15=
EXTT16=
EXTT17=
EXTT18=
EXTT19=
EXTT20=
EXTT21=
PLAYORDER=
